<?xml version="1.0" encoding="UTF-8" standalone="no"?>
<!-- Generator: Adobe Illustrator 22.0.0, SVG Export Plug-In . SVG Version: 6.00 Build 0)  -->

<svg
   xmlns:dc="http://purl.org/dc/elements/1.1/"
   xmlns:cc="http://creativecommons.org/ns#"
   xmlns:rdf="http://www.w3.org/1999/02/22-rdf-syntax-ns#"
   xmlns:svg="http://www.w3.org/2000/svg"
   xmlns="http://www.w3.org/2000/svg"
   xmlns:sodipodi="http://sodipodi.sourceforge.net/DTD/sodipodi-0.dtd"
   xmlns:inkscape="http://www.inkscape.org/namespaces/inkscape"
   version="1.1"
   id="Layer_1"
   x="0px"
   y="0px"
   viewBox="0 0 163.08975 29.404923"
   xml:space="preserve"
   sodipodi:docname="logo.svg"
   width="163.08975"
   height="29.404922"
   inkscape:version="0.92.2 (5c3e80d, 2017-08-06)"><metadata
     id="metadata927"><rdf:RDF><cc:Work
         rdf:about=""><dc:format>image/svg+xml</dc:format><dc:type
           rdf:resource="http://purl.org/dc/dcmitype/StillImage" /><dc:title></dc:title></cc:Work></rdf:RDF></metadata><defs
     id="defs925" /><sodipodi:namedview
     pagecolor="#ffffff"
     bordercolor="#666666"
     borderopacity="1"
     objecttolerance="10"
     gridtolerance="10"
     guidetolerance="10"
     inkscape:pageopacity="0"
     inkscape:pageshadow="2"
     inkscape:window-width="1366"
     inkscape:window-height="716"
     id="namedview923"
     showgrid="false"
     fit-margin-top="0"
     fit-margin-left="0"
     fit-margin-right="0"
     fit-margin-bottom="0"
     inkscape:zoom="2.197155"
     inkscape:cx="26.400179"
     inkscape:cy="-45.247563"
     inkscape:window-x="0"
     inkscape:window-y="0"
     inkscape:window-maximized="1"
     inkscape:current-layer="Layer_1" /><style
     type="text/css"
     id="style870">
	.st0{fill-rule:evenodd;clip-rule:evenodd;}
</style><g
     id="g1500"
     transform="matrix(0.47274795,0,0,0.47274795,-0.00828327,10.495005)"
     style="fill:#333333;fill-opacity:1"><polygon
       transform="translate(0,-22.200001)"
       id="polygon872"
       points="130.1,34.3 112.7,34.3 112.7,44.3 128,44.3 128,47.5 112.7,47.5 112.7,59.5 109.6,59.5 109.6,31.1 130.1,31.1 "
       style="fill:#333333;fill-opacity:1" /><g
       transform="translate(0,-22.200001)"
       id="g920"
       style="fill:#333333;fill-opacity:1"><path
         inkscape:connector-curvature="0"
         id="path874"
         d="m 147.2,30.8 c 4.2,0 7.7,1.4 10.4,4.3 2.7,2.7 4,6.2 4,10.3 0,4.1 -1.3,7.6 -4,10.3 -2.7,2.8 -6.2,4.3 -10.4,4.3 -4.2,0 -7.7,-1.4 -10.4,-4.3 -2.7,-2.7 -4,-6.2 -4,-10.3 0,-4.1 1.3,-7.6 4,-10.3 2.6,-2.8 6.1,-4.3 10.4,-4.3 m 0,26 c 3.4,0 6.1,-1.1 8.2,-3.3 2,-2.1 3,-4.8 3,-8.1 0,-3.3 -1,-6 -3,-8.1 -2.1,-2.2 -4.8,-3.3 -8.2,-3.3 -3.4,0 -6.1,1.1 -8.2,3.3 -2,2.1 -3,4.8 -3,8.1 0,3.3 1,6 3,8.1 2,2.2 4.8,3.3 8.2,3.3"
         style="fill:#333333;fill-opacity:1" /><path
         inkscape:connector-curvature="0"
         id="path876"
         d="m 190.4,31.1 v 16.2 c 0,3.8 -1.1,6.8 -3.4,9.1 -2.2,2.3 -5.1,3.5 -8.7,3.5 -3.5,0 -6.4,-1.2 -8.7,-3.5 -2.2,-2.3 -3.4,-5.3 -3.4,-9.1 V 31.1 h 3.2 v 16.3 c 0,3.1 0.9,5.5 2.7,7.2 1.6,1.5 3.6,2.2 6.1,2.2 2.5,0 4.5,-0.7 6.1,-2.2 1.8,-1.7 2.7,-4.1 2.7,-7.2 V 31.1 Z"
         style="fill:#333333;fill-opacity:1" /><polygon
         id="polygon878"
         points="217.7,59.5 200.3,35.6 200.3,59.5 197.1,59.5 197.1,31.1 201,31.1 218.4,55 218.4,31.1 221.6,31.1 221.6,59.5 "
         style="fill:#333333;fill-opacity:1" /><path
         inkscape:connector-curvature="0"
         id="path880"
         d="m 240.6,31.1 c 1.7,0 3.3,0.3 4.9,1 1.6,0.6 3,1.6 4.2,2.8 2.7,2.7 4,6.2 4,10.4 0,4.2 -1.3,7.7 -4,10.4 -1.2,1.2 -2.6,2.2 -4.2,2.8 -1.6,0.6 -3.2,1 -4.9,1 h -12 V 31.1 Z m -0.1,25.6 c 3,0 5.4,-1.1 7.3,-3.3 1.8,-2.1 2.7,-4.7 2.7,-7.9 0,-3.1 -0.9,-5.7 -2.7,-7.9 -1.9,-2.2 -4.3,-3.3 -7.3,-3.3 h -8.6 v 22.3 h 8.6 z"
         style="fill:#333333;fill-opacity:1" /><path
         inkscape:connector-curvature="0"
         id="path882"
         d="m 262,59.5 h -3.2 V 31.1 h 13.6 c 2.9,0 5.2,0.8 6.9,2.4 1.7,1.6 2.6,3.7 2.6,6.5 0,3.5 -1.5,6 -4.4,7.2 -0.8,0.4 -1.6,0.6 -2.4,0.8 l 7.5,11.4 h -3.7 l -6.9,-11 h -10 z m 0,-13.8 h 9.8 c 3,0 5.1,-0.9 6.2,-2.8 0.4,-0.7 0.6,-1.6 0.6,-2.7 0,-1.8 -0.6,-3.2 -1.8,-4.2 -1.2,-1 -2.8,-1.6 -4.9,-1.6 H 262 Z"
         style="fill:#333333;fill-opacity:1" /><rect
         id="rect884"
         height="28.4"
         width="3.2"
         y="31.1"
         x="287.5"
         style="fill:#333333;fill-opacity:1" /><polygon
         id="polygon886"
         points="317,43.9 317,47.1 301,47.1 301,56.7 318.7,56.7 318.7,59.5 297.8,59.5 297.8,31.1 318.7,31.1 318.7,34.3 301,34.3 301,43.9 "
         style="fill:#333333;fill-opacity:1" /><path
         inkscape:connector-curvature="0"
         id="path888"
         d="m 327,35.6 c -0.5,0.5 -0.9,1 -1.1,1.6 -0.2,0.6 -0.3,1.2 -0.3,1.8 0,0.6 0.3,1.2 0.8,1.8 0.6,0.5 1.3,1 2.2,1.4 0.9,0.4 1.9,0.7 3.1,1 1.2,0.3 2.3,0.6 3.6,0.9 1.2,0.3 2.4,0.6 3.6,1 1.2,0.4 2.2,0.9 3.1,1.5 2,1.3 3,3 3,5.2 0,2.6 -1,4.7 -3,6 -2,1.4 -4.7,2.1 -8.2,2.1 -3.9,0 -7,-0.8 -9,-2.5 -1.8,-1.5 -2.9,-3.6 -3.2,-6.3 h 3.3 c 0.1,1.9 1,3.4 2.8,4.4 1.5,0.9 3.6,1.3 6.1,1.3 5.3,0 7.9,-1.7 7.9,-5 0,-1.1 -0.5,-2 -1.4,-2.7 -1,-0.7 -2.1,-1.2 -3.6,-1.6 -1.4,-0.4 -3,-0.8 -4.6,-1.2 -1.7,-0.4 -3.2,-0.8 -4.6,-1.4 -1.4,-0.6 -2.6,-1.3 -3.6,-2.3 -1,-1 -1.4,-2.2 -1.4,-3.9 0,-2.3 0.9,-4.2 2.6,-5.6 1.8,-1.4 4.4,-2.2 8,-2.2 3.6,0 6.3,0.8 8.3,2.5 1.8,1.4 2.7,3.3 2.9,5.6 H 341 c -0.3,-2.3 -1.8,-3.9 -4.5,-4.6 -1,-0.3 -2.2,-0.4 -3.6,-0.4 -1.4,0 -2.6,0.2 -3.6,0.5 -1,0.2 -1.8,0.6 -2.3,1.1"
         style="fill:#333333;fill-opacity:1" /><path
         inkscape:connector-curvature="0"
         id="path890"
         d="m 117.9,2.6 c 2.7,0 4.9,0.9 6.6,2.7 1.7,1.7 2.5,3.9 2.5,6.5 0,2.6 -0.8,4.8 -2.5,6.5 -1.7,1.8 -3.9,2.7 -6.6,2.7 -2.7,0 -4.9,-0.9 -6.6,-2.7 -1.7,-1.7 -2.5,-3.9 -2.5,-6.5 0,-2.6 0.8,-4.8 2.5,-6.5 1.8,-1.8 4,-2.7 6.6,-2.7 m 0,16.4 c 2.1,0 3.9,-0.7 5.2,-2.1 1.3,-1.3 1.9,-3.1 1.9,-5.1 0,-2.1 -0.6,-3.8 -1.9,-5.1 -1.3,-1.4 -3.1,-2.1 -5.2,-2.1 -2.1,0 -3.9,0.7 -5.2,2.1 -1.3,1.3 -1.9,3.1 -1.9,5.1 0,2.1 0.6,3.8 1.9,5.1 1.4,1.4 3.1,2.1 5.2,2.1"
         style="fill:#333333;fill-opacity:1" /><path
         inkscape:connector-curvature="0"
         id="path892"
         d="m 136.9,20.9 h -2.1 V 2.8 h 8.2 c 1.9,0 3.5,0.5 4.6,1.6 1.1,1.1 1.7,2.5 1.7,4.3 0,1.8 -0.6,3.2 -1.7,4.3 -1.1,1.1 -2.7,1.6 -4.6,1.6 h -6.1 z M 136.5,4.6 v 7.8 h 6 c 1.4,0 2.5,-0.3 3.2,-1 0.7,-0.7 1.1,-1.6 1.1,-2.9 0,-1.2 -0.4,-2.2 -1.1,-2.9 -0.7,-0.7 -1.8,-1 -3.2,-1 z"
         style="fill:#333333;fill-opacity:1" /><polygon
         id="polygon894"
         points="168.1,10.6 168.1,12.7 157.8,12.7 157.8,18.7 169.1,18.7 169.1,20.9 156,20.9 156,2.8 169.1,2.8 169.1,4.9 157.8,4.9 157.8,10.6 "
         style="fill:#333333;fill-opacity:1" /><polygon
         id="polygon896"
         points="190.3,20.9 178.7,5.6 178.7,20.9 176.6,20.9 176.6,2.8 178.4,2.8 190,18 190,2.8 192.2,2.8 192.2,20.9 "
         style="fill:#333333;fill-opacity:1" /><path
         inkscape:connector-curvature="0"
         id="path898"
         d="m 217.4,5.6 c -0.3,0.3 -0.6,0.6 -0.7,1 -0.1,0.4 -0.2,0.8 -0.2,1.2 0,0.4 0.2,0.8 0.5,1.1 0.4,0.3 0.8,0.6 1.4,0.9 0.6,0.2 1.3,0.5 2,0.6 0.8,0.2 1.5,0.4 2.3,0.6 0.8,0.2 1.5,0.4 2.3,0.7 0.8,0.2 1.4,0.6 2,1 1.3,0.8 2,2 2,3.4 0,1.7 -0.6,3 -1.9,3.9 -1.3,0.9 -3,1.4 -5.3,1.4 -2.6,0 -4.5,-0.5 -5.8,-1.6 -1.2,-1 -1.9,-2.3 -2,-4.1 h 2.1 c 0.1,1.3 0.7,2.2 1.8,2.9 1,0.6 2.3,0.9 3.9,0.9 3.4,0 5.1,-1.1 5.1,-3.2 0,-0.7 -0.3,-1.3 -0.9,-1.7 -0.6,-0.4 -1.4,-0.8 -2.3,-1 -0.9,-0.3 -1.9,-0.5 -3,-0.8 -1.1,-0.2 -2.1,-0.5 -3,-0.9 -0.9,-0.4 -1.7,-0.9 -2.3,-1.5 -0.6,-0.6 -0.9,-1.4 -0.9,-2.5 0,-1.5 0.6,-2.7 1.7,-3.6 1.1,-0.9 2.9,-1.4 5.2,-1.4 2.3,0 4.1,0.5 5.4,1.6 1.2,0.9 1.8,2.1 1.8,3.6 h -2.1 c -0.2,-1.5 -1.2,-2.5 -2.9,-3 -0.6,-0.2 -1.4,-0.3 -2.3,-0.3 -0.9,0 -1.7,0.1 -2.3,0.3 -0.7,-0.1 -1.2,0.2 -1.6,0.5"
         style="fill:#333333;fill-opacity:1" /><path
         inkscape:connector-curvature="0"
         id="path900"
         d="m 244.4,2.6 c 2.7,0 4.9,0.9 6.6,2.7 1.7,1.7 2.5,3.9 2.5,6.5 0,2.6 -0.8,4.8 -2.5,6.5 -1.7,1.8 -3.9,2.7 -6.6,2.7 -2.7,0 -4.9,-0.9 -6.6,-2.7 -1.7,-1.7 -2.5,-3.9 -2.5,-6.5 0,-2.6 0.8,-4.8 2.5,-6.5 1.7,-1.8 3.9,-2.7 6.6,-2.7 m 0,16.4 c 2.1,0 3.9,-0.7 5.2,-2.1 1.3,-1.3 1.9,-3.1 1.9,-5.1 0,-2.1 -0.6,-3.8 -1.9,-5.1 -1.3,-1.4 -3.1,-2.1 -5.2,-2.1 -2.1,0 -3.9,0.7 -5.2,2.1 -1.3,1.3 -1.9,3.1 -1.9,5.1 0,2.1 0.6,3.8 1.9,5.1 1.3,1.4 3,2.1 5.2,2.1"
         style="fill:#333333;fill-opacity:1" /><path
         inkscape:connector-curvature="0"
         id="path902"
         d="M 276.2,2.8 V 13 c 0,2.4 -0.7,4.3 -2.1,5.8 -1.4,1.5 -3.3,2.2 -5.5,2.2 -2.2,0 -4.1,-0.7 -5.5,-2.2 C 261.7,17.3 261,15.4 261,13 V 2.8 h 1.8 v 10.3 c 0,1.9 0.6,3.5 1.8,4.5 1,0.9 2.3,1.4 3.9,1.4 1.6,0 2.9,-0.5 3.9,-1.4 1.2,-1.1 1.8,-2.6 1.8,-4.5 V 2.8 Z"
         style="fill:#333333;fill-opacity:1" /><path
         inkscape:connector-curvature="0"
         id="path904"
         d="m 286.5,20.9 h -1.8 V 2.8 h 8.7 c 1.8,0 3.3,0.5 4.4,1.5 1.1,1 1.7,2.4 1.7,4.1 0,2.3 -0.9,3.8 -2.8,4.6 -0.5,0.2 -1,0.4 -1.6,0.5 l 4.8,7.3 h -3 l -4.2,-6.7 h -6.1 v 6.8 z m 0,-8.9 h 6.1 c 1.9,0 3.2,-0.6 3.9,-1.8 0.3,-0.4 0.4,-1 0.4,-1.7 0,-1.1 -0.4,-2 -1.1,-2.7 -0.8,-0.6 -1.8,-1 -3,-1 h -6.2 V 12 Z"
         style="fill:#333333;fill-opacity:1" /><path
         inkscape:connector-curvature="0"
         id="path906"
         d="m 315,18.7 c 1.3,0 2.4,-0.3 3.3,-1 1,-0.6 1.7,-1.5 2.1,-2.6 h 2.1 c -0.6,1.7 -1.6,3 -2.9,3.9 -1.4,1 -3.1,1.5 -5.1,1.5 -2.6,0 -4.7,-0.9 -6.3,-2.6 -1.5,-1.7 -2.3,-3.8 -2.3,-6.4 0,-2.6 0.8,-4.7 2.3,-6.4 1.6,-1.8 3.7,-2.6 6.3,-2.6 2,0 3.7,0.5 5.1,1.5 1.4,1 2.3,2.3 2.9,3.9 h -2.1 c -0.5,-1.1 -1.2,-1.9 -2.1,-2.6 -1,-0.6 -2.1,-1 -3.3,-1 -1.3,0 -2.3,0.2 -3.1,0.5 -0.8,0.4 -1.5,0.9 -2.1,1.5 -1.2,1.3 -1.7,3 -1.7,5 0,2.1 0.6,3.7 1.7,5 1.2,1.8 2.9,2.4 5.2,2.4"
         style="fill:#333333;fill-opacity:1" /><polygon
         id="polygon908"
         points="342.1,10.6 342.1,12.7 331.9,12.7 331.9,18.7 343.2,18.7 343.2,20.9 330.1,20.9 330.1,2.8 343.2,2.8 343.2,4.9 331.9,4.9 331.9,10.6 "
         style="fill:#333333;fill-opacity:1" /><path
         style="clip-rule:evenodd;fill:#333333;fill-opacity:1;fill-rule:evenodd"
         inkscape:connector-curvature="0"
         id="path910"
         d="m 93.8,39.8 c 0,-0.3 0,-0.6 0,-0.8 -0.2,-2.8 -0.9,-5.5 -2.1,-7.9 -1.9,-4 -4.9,-7.4 -8.5,-9.7 -3.7,-2.3 -8,-3.5 -12.4,-3.2 -0.4,0 -0.7,0.1 -1.1,0.1 v 0 C 69.6,17.8 69.5,17.4 69.4,17 69.1,16.1 68.8,15.2 68.4,14.1 67.8,12.7 67.1,11.4 66.3,10.2 65.5,9 64.5,7.8 63.5,6.8 62.4,5.8 61.3,4.8 60.1,4 58.9,3.2 57.6,2.5 56.2,1.9 54.8,1.3 53.3,0.9 51.8,0.5 50,0.2 48.4,0 46.9,0 45.3,0 43.8,0.2 42.3,0.5 40.8,0.8 39.3,1.3 37.9,1.9 36.5,2.5 35.2,3.2 34,4 c -1.2,0.8 -2.4,1.8 -3.4,2.8 -1,1 -2,2.2 -2.8,3.4 -1.8,2.6 -2.6,5 -3.3,7.8 v 0 c -1.5,-0.2 -3,-0.2 -4.5,-0.1 -3.7,0.4 -7.2,1.7 -10.2,3.7 -3,2 -5.6,4.8 -7.3,8.1 -2.8,5.1 -3.5,11.3 -0.7,17.8 0.1,0.2 0.1,0.3 0.1,0.3 2.3,5.3 6.6,9.2 11.6,11.2 5,2 10.7,2.1 15.9,0 8.7,-3.7 14.8,-11.6 20.1,-19 6.4,-8.8 13,-17.2 22.2,-17.2 5.8,0 10.1,2.3 13.1,5.9 2,2.4 3.4,5.3 4,8.3 0.6,3 0.5,6.2 -0.4,9.2 -1.4,4.5 -4.5,7.9 -9.8,10.2 -1.1,0.5 -2.2,0.8 -3.4,1 -1.1,0.2 -2.3,0.3 -3.5,0.3 L 45.8,57.6 v 2.3 2.3 h 26.9 c 6.4,-0.7 11,-2.3 15.5,-7.2 3.6,-4 5.8,-9.3 5.6,-15.2 M 45.5,37.9 c -4.9,6.8 -9.8,13.6 -17.4,16.7 -4.2,1.7 -8.8,1.6 -12.9,0 C 11.3,53 7.9,49.9 6.1,45.7 3.9,40.6 4.4,35.7 6.5,31.8 7.8,29.2 9.9,27 12.2,25.4 c 2.4,-1.6 5.2,-2.7 8.1,-2.9 4.4,-0.4 9.1,1 13,4.9 l 1.6,-1.6 c 0,0 0,0 0,0 l 1.6,-1.6 c -2.4,-2.4 -5,-4 -7.7,-5 0.2,-0.8 0.4,-1.6 0.7,-2.4 1.5,-4.5 4.4,-7.7 7.9,-9.7 2.8,-1.6 6,-2.4 9.3,-2.4 3.2,0 6.5,0.8 9.4,2.4 3.7,2.1 6.8,5.5 8.5,10.3 0.2,0.7 0.4,1.4 0.6,2.1 v 0 c -0.5,0.2 -1,0.4 -1.5,0.6 C 55.6,24 50.5,31 45.5,37.9"
         class="st0" /><path
         inkscape:connector-curvature="0"
         id="path912"
         d="m 79.7,41.8 c 0.1,-0.7 0.1,-1.4 0.1,-2.1 l 0.1,-0.1 1,-1.3 C 80.8,37.9 80.7,37.4 80.5,37 80.3,36.6 80.1,36.2 79.9,35.8 l -1.6,0.1 v 0 c -0.5,-0.7 -1.1,-1.3 -1.7,-1.8 l 0.1,-1.6 C 76,32 75.1,31.7 74.3,31.5 l -1.1,1.2 c -0.8,-0.1 -1.6,-0.1 -2.4,0 v 0 l -1.1,-1.2 c -0.4,0.1 -0.8,0.2 -1.2,0.4 -0.4,0.2 -0.8,0.4 -1.2,0.6 l 0.1,1.6 v 0 c -0.7,0.5 -1.2,1.1 -1.7,1.7 L 64,35.7 c -0.4,0.8 -0.8,1.6 -1,2.5 l 1,1.3 0.1,0.1 c -0.1,0.7 -0.1,1.4 0,2.1 v 0 L 63,42.9 c 0.1,0.4 0.2,0.9 0.4,1.3 0.2,0.4 0.4,0.8 0.6,1.2 l 0.9,0.5 H 66 c 0.4,0.5 0.8,0.9 1.3,1.2 l -0.1,1.6 c 0.7,0.5 1.6,0.8 2.4,1 h 0.3 l 1,-1.1 c 0.7,0.1 1.4,0.1 2.1,0 l 1,1.1 h 0.3 c 0.4,-0.1 0.8,-0.2 1.2,-0.4 0.4,-0.2 0.8,-0.4 1.2,-0.6 l -0.1,-1.6 v 0 c 0.5,-0.4 0.9,-0.8 1.3,-1.2 L 79,46 79.9,45.5 c 0.4,-0.8 0.8,-1.6 1,-2.5 z m -8,2.8 c -1.9,-0.1 -3.4,-1.7 -3.4,-3.7 0,-2.1 1.6,-3.7 3.6,-3.7 2,0 3.6,1.7 3.6,3.7 0,2 -1.5,3.6 -3.4,3.7 -0.1,0 -0.1,0 -0.2,0 -0.1,0 -0.2,0 -0.2,0"
         style="fill:#333333;fill-opacity:1" /><path
         inkscape:connector-curvature="0"
         id="path914"
         d="m 58.9,52.3 c 0,0 -0.1,0 -0.1,0 0,0 0,0 0,0 -0.9,-0.1 -1.6,-1 -1.6,-2 0,-1.1 0.9,-2 1.9,-2 1.1,0 1.9,0.9 1.9,2 0,1 -0.7,1.8 -1.6,2 0,0 0,0 0,0 0,0 -0.1,0 -0.1,0 -0.1,0 -0.1,0 -0.2,0 -0.1,0 -0.1,0 -0.2,0 m 4.3,-1.4 c 0.1,-0.4 0.1,-0.8 0,-1.1 l 0.1,-0.1 0.6,-0.7 c -0.1,-0.2 -0.1,-0.5 -0.2,-0.7 -0.1,-0.2 -0.2,-0.4 -0.3,-0.6 h -0.9 v 0 C 62.2,47.3 61.9,47 61.6,46.8 v -0.9 c -0.4,-0.2 -0.8,-0.4 -1.3,-0.6 l -0.6,0.6 c -0.4,-0.1 -0.9,-0.1 -1.3,0 v 0 l -0.6,-0.7 c -0.2,0.1 -0.4,0.1 -0.7,0.2 -0.2,0.1 -0.4,0.2 -0.6,0.3 v 0.9 0 c -0.4,0.3 -0.7,0.6 -0.9,0.9 h -0.9 c -0.2,0.4 -0.4,0.9 -0.5,1.3 l 0.6,0.7 0.1,0.1 c 0,0.4 0,0.8 0,1.1 v 0 l -0.6,0.6 c 0.1,0.2 0.1,0.5 0.2,0.7 0.1,0.2 0.2,0.4 0.3,0.6 l 0.5,0.3 h 0.6 c 0.2,0.2 0.4,0.5 0.7,0.7 v 0.9 c 0.4,0.2 0.8,0.4 1.3,0.6 H 58 l 0.5,-0.6 c 0.4,0.1 0.8,0.1 1.1,0 l 0.5,0.6 h 0.1 c 0.2,-0.1 0.4,-0.1 0.7,-0.2 0.2,-0.1 0.4,-0.2 0.6,-0.3 v -0.9 0 c 0.3,-0.2 0.5,-0.4 0.7,-0.6 h 0.6 l 0.5,-0.3 c 0.2,-0.4 0.4,-0.9 0.5,-1.3 z"
         style="fill:#333333;fill-opacity:1" /><path
         inkscape:connector-curvature="0"
         id="path916"
         d="m 71.9,33.9 c -3.7,0 -6.8,3 -6.8,6.8 0,3.7 3,6.8 6.8,6.8 3.7,0 6.8,-3 6.8,-6.8 0,-3.7 -3,-6.8 -6.8,-6.8 m 0,12.1 c -2.9,0 -5.3,-2.4 -5.3,-5.3 0,-2.9 2.4,-5.3 5.3,-5.3 2.9,0 5.3,2.4 5.3,5.3 0,2.9 -2.3,5.3 -5.3,5.3"
         style="fill:#333333;fill-opacity:1" /><path
         inkscape:connector-curvature="0"
         id="path918"
         d="m 59.1,46.4 c -2,0 -3.7,1.6 -3.7,3.7 0,2 1.6,3.7 3.7,3.7 2,0 3.7,-1.6 3.7,-3.7 -0.1,-2.1 -1.7,-3.7 -3.7,-3.7 m 0,6.5 c -1.6,0 -2.8,-1.3 -2.8,-2.8 0,-1.6 1.3,-2.8 2.8,-2.8 1.6,0 2.8,1.3 2.8,2.8 0,1.5 -1.3,2.8 -2.8,2.8"
         style="fill:#333333;fill-opacity:1" /></g></g></svg>